<svg xmlns="http://www.w3.org/2000/svg" width="1623" height="264" viewBox="0 0 1623 264">
  <g id="Group_2" data-name="Group 2" transform="translate(-185.949 -196.896)">
    <path id="Path_1" data-name="Path 1" d="M0,244.067c48.57-41.276,97.14-82.552,145.71-98.874s97.14-7.689,145.71,19.6,97.14,73.225,145.71,79.277,97.14-27.782,145.71-71.261,97.14-96.6,145.71-86.4,97.14,83.712,145.71,98.874,97.14-28.029,145.71-59.681,97.14-51.764,145.71-58.79,97.14-.967,145.71,19.6,97.14,55.63,145.71,43.647S1554.241,59.034,1602.81,0" transform="translate(195.772 206.772)" fill="none" stroke="#fc5d94" stroke-width="4"/>
    <g id="Marks" transform="translate(185.895 196.896)">
      <g id="Ellipse_3" data-name="Ellipse 3" transform="translate(0.053 244)" fill="#fff" stroke="#fc5d94" stroke-width="4">
        <circle cx="10" cy="10" r="10" stroke="none"/>
        <circle cx="10" cy="10" r="8" fill="none"/>
      </g>
      <g id="Ellipse_4" data-name="Ellipse 4" transform="translate(147.127 145.262)" fill="#fff" stroke="#fc5d94" stroke-width="4">
        <circle cx="9.772" cy="9.772" r="9.772" stroke="none"/>
        <circle cx="9.772" cy="9.772" r="7.772" fill="none"/>
      </g>
      <g id="Ellipse_5" data-name="Ellipse 5" transform="translate(294.15 164.859)" fill="#fff" stroke="#fc5d94" stroke-width="4">
        <circle cx="9.772" cy="9.772" r="9.772" stroke="none"/>
        <circle cx="9.772" cy="9.772" r="7.772" fill="none"/>
      </g>
      <g id="Ellipse_6" data-name="Ellipse 6" transform="translate(437.235 244.103)" fill="#fff" stroke="#fc5d94" stroke-width="4">
        <circle cx="9.772" cy="9.772" r="9.772" stroke="none"/>
        <circle cx="9.772" cy="9.772" r="7.772" fill="none"/>
      </g>
      <g id="Ellipse_7" data-name="Ellipse 7" transform="translate(582.945 172.875)" fill="#fff" stroke="#fc5d94" stroke-width="4">
        <circle cx="9.772" cy="9.772" r="9.772" stroke="none"/>
        <circle cx="9.772" cy="9.772" r="7.772" fill="none"/>
      </g>
      <g id="Ellipse_8" data-name="Ellipse 8" transform="translate(728.656 86.474)" fill="#fff" stroke="#fc5d94" stroke-width="4">
        <circle cx="9.772" cy="9.772" r="9.772" stroke="none"/>
        <circle cx="9.772" cy="9.772" r="7.772" fill="none"/>
      </g>
      <g id="Ellipse_9" data-name="Ellipse 9" transform="translate(874.366 185.346)" fill="#fff" stroke="#fc5d94" stroke-width="4">
        <circle cx="9.772" cy="9.772" r="9.772" stroke="none"/>
        <circle cx="9.772" cy="9.772" r="7.772" fill="none"/>
      </g>
      <g id="Ellipse_10" data-name="Ellipse 10" transform="translate(1020.076 125.666)" fill="#fff" stroke="#fc5d94" stroke-width="4">
        <circle cx="9.772" cy="9.772" r="9.772" stroke="none"/>
        <circle cx="9.772" cy="9.772" r="7.772" fill="none"/>
      </g>
      <g id="Ellipse_11" data-name="Ellipse 11" transform="translate(1165.787 66.878)" fill="#fff" stroke="#fc5d94" stroke-width="4">
        <circle cx="9.772" cy="9.772" r="9.772" stroke="none"/>
        <circle cx="9.772" cy="9.772" r="7.772" fill="none"/>
      </g>
      <g id="Ellipse_12" data-name="Ellipse 12" transform="translate(1308.87 86.474)" fill="#fff" stroke="#fc5d94" stroke-width="4">
        <circle cx="9.772" cy="9.772" r="9.772" stroke="none"/>
        <circle cx="9.772" cy="9.772" r="7.772" fill="none"/>
      </g>
      <g id="Ellipse_13" data-name="Ellipse 13" transform="translate(1455.892 130.12)" fill="#fff" stroke="#fc5d94" stroke-width="4">
        <circle cx="9.772" cy="9.772" r="9.772" stroke="none"/>
        <circle cx="9.772" cy="9.772" r="7.772" fill="none"/>
      </g>
      <g id="Ellipse_14" data-name="Ellipse 14" transform="translate(1603.053)" fill="#fff" stroke="#fc5d94" stroke-width="4">
        <circle cx="10" cy="10" r="10" stroke="none"/>
        <circle cx="10" cy="10" r="8" fill="none"/>
      </g>
    </g>
  </g>
</svg>
